<?xml version="1.0" encoding="utf-8"?>
<!-- Generator: Adobe Illustrator 25.4.1, SVG Export Plug-In . SVG Version: 6.00 Build 0)  -->
<svg version="1.1" id="Слой_1" xmlns="http://www.w3.org/2000/svg" xmlns:xlink="http://www.w3.org/1999/xlink" x="0px" y="0px"
	 viewBox="0 0 233 64" style="enable-background:new 0 0 233 64;" xml:space="preserve">
<style type="text/css">
	.st0{enable-background:new    ;}
	.st1{fill:#020203;}
	.st2{fill:#3463AC;}
</style>
<g class="st0">
	<path class="st1" d="M9.4,53.9V25.7H4.8v-4.6h9.8v32.8H9.4z M9.4,14.6V8h5.2v6.6H9.4z"/>
</g>
<g class="st0">
	<path class="st1" d="M34.1,53.9c-2.3,0-4.1-0.6-5.4-1.9c-1.4-1.3-2-3-2-5.1V25.7h-5.7v-4.6h5c0.4,0,0.7-0.1,1-0.4
		c0.2-0.3,0.5-0.9,0.7-2c0.2-1,0.6-2.7,1-5l0.2-1.1h3.1v8.5h8.1v4.6h-8.1v21.1c0,0.7,0.2,1.3,0.6,1.8c0.4,0.5,0.9,0.7,1.6,0.7h5.8
		v4.6H34.1z"/>
</g>
<g class="st0">
	<path class="st1" d="M58.6,54.6c-3.8,0-6.8-1.1-8.9-3.2c-2.1-2.2-3.4-4.9-3.8-8.1c-0.3-2.1-0.4-4-0.4-5.7c0-0.9,0-1.8,0.1-2.8
		c0.1-0.9,0.2-2,0.3-3c0.4-3.3,1.7-6,3.8-8.1c2.1-2.1,5.1-3.2,8.9-3.2c3.8,0,6.8,1.1,8.9,3.2c2.1,2.1,3.4,4.9,3.8,8.1
		c0.3,2.1,0.4,4.1,0.4,5.8c0,1.7-0.1,3.6-0.4,5.7c-0.4,3.2-1.7,5.9-3.8,8.1C65.3,53.5,62.4,54.6,58.6,54.6z M58.6,50.1
		c2.4,0,4.2-0.7,5.5-2.1c1.3-1.4,2-3,2.2-4.9c0.2-2,0.3-3.8,0.3-5.5c0-1.7-0.1-3.5-0.3-5.5c-0.2-1.9-0.9-3.6-2.2-4.9
		c-1.3-1.4-3.1-2.1-5.5-2.1c-2.4,0-4.3,0.7-5.6,2.1c-1.3,1.4-2,3-2.2,4.9c-0.1,2-0.2,3.9-0.2,5.5c0,1.7,0.1,3.5,0.3,5.5
		c0.2,1.9,1,3.5,2.2,4.9C54.3,49.4,56.2,50.1,58.6,50.1z"/>
	<path class="st1" d="M90.6,54.7c-2.2,0-4.1-0.4-5.7-1.2c-1.6-0.8-2.8-2-3.7-3.5c-0.9-1.5-1.3-3.3-1.3-5.4V21.1h5.2v22.8
		c0,1.8,0.6,3.3,1.7,4.4C88,49.4,89.7,50,92,50c2.2,0,4-0.5,5.2-1.6c1.2-1.1,1.8-2.6,1.8-4.4V21.1h5.2v32.8H99v-1.2
		c0-0.4-0.1-0.7-0.4-0.8c-0.3-0.1-0.6,0-0.9,0.2l-3.3,2.1C93.4,54.5,92.1,54.7,90.6,54.7z"/>
	<path class="st1" d="M123.7,53.9c-2.3,0-4.1-0.6-5.4-1.9c-1.4-1.3-2-3-2-5.1V25.7h-5.7v-4.6h5c0.4,0,0.7-0.1,1-0.4
		c0.2-0.3,0.5-0.9,0.7-2c0.2-1,0.6-2.7,1-5l0.2-1.1h3.1v8.5h8.1v4.6h-8.1v21.1c0,0.7,0.2,1.3,0.6,1.8c0.4,0.5,0.9,0.7,1.6,0.7h5.8
		v4.6H123.7z"/>
</g>
<g class="st0">
	<path class="st2" d="M148.2,54.6c-3.8,0-6.8-1.1-8.9-3.2c-2.1-2.2-3.4-4.9-3.8-8.1c-0.3-2.1-0.4-4-0.4-5.7c0-0.9,0-1.8,0.1-2.8
		c0.1-0.9,0.2-2,0.3-3c0.4-3.3,1.7-6,3.8-8.1c2.1-2.1,5.1-3.2,8.9-3.2c3.8,0,6.8,1.1,8.9,3.2c2.1,2.1,3.4,4.9,3.8,8.1
		c0.3,2.1,0.4,4.1,0.4,5.8c0,1.7-0.1,3.6-0.4,5.7c-0.4,3.2-1.7,5.9-3.8,8.1C154.9,53.5,152,54.6,148.2,54.6z M148.2,50.1
		c2.4,0,4.2-0.7,5.5-2.1c1.3-1.4,2-3,2.2-4.9c0.2-2,0.3-3.8,0.3-5.5c0-1.7-0.1-3.5-0.3-5.5c-0.2-1.9-0.9-3.6-2.2-4.9
		c-1.3-1.4-3.1-2.1-5.5-2.1c-2.4,0-4.3,0.7-5.6,2.1c-1.3,1.4-2,3-2.2,4.9c-0.1,2-0.2,3.9-0.2,5.5c0,1.7,0.1,3.5,0.3,5.5
		c0.2,1.9,1,3.5,2.2,4.9C143.9,49.4,145.8,50.1,148.2,50.1z"/>
	<path class="st2" d="M170.5,53.9V21.1h5.2V23c0.9-0.7,2-1.3,3.4-1.9c1.4-0.5,3-0.8,4.8-0.8c2.3,0,4.2,0.4,5.9,1.3s2.9,2,3.8,3.6
		c0.9,1.5,1.3,3.3,1.3,5.3v23.4h-5.2V31.1c0-1.8-0.6-3.3-1.7-4.4c-1.2-1.1-2.9-1.6-5.1-1.6c-2.2,0-4,0.5-5.2,1.6
		c-1.2,1.1-1.8,2.6-1.8,4.4v22.8H170.5z"/>
	<path class="st2" d="M217.1,54.5c-2.7,0-4.9-0.5-6.8-1.5s-3.3-2.3-4.3-4c-1-1.7-1.7-3.6-1.9-5.8c-0.1-1-0.2-2-0.3-2.9
		c-0.1-0.9-0.1-1.8-0.1-2.8c0-1.7,0.1-3.7,0.4-5.8c0.3-3.2,1.6-5.9,3.7-8.1c2.1-2.1,5-3.2,8.7-3.2c2.7,0,4.8,0.5,6.4,1.4
		c1.6,1,2.8,2.2,3.7,3.7c0.8,1.5,1.4,3.1,1.7,4.9c0.3,1.7,0.4,3.3,0.4,4.7l-1.3,3.5l-19.8-0.1v-4.5h16.1c0-1.5-0.2-2.9-0.6-4.3
		c-0.4-1.4-1.1-2.5-2.1-3.4c-1-0.9-2.6-1.3-4.5-1.3c-2.3,0-4.1,0.7-5.4,2.1c-1.3,1.4-2,3-2.2,4.9c-0.1,1.1-0.2,2.6-0.2,4.5
		c-0.1,1.9,0,4.1,0.3,6.5c0.2,1.9,1,3.5,2.2,4.9c1.2,1.4,3.2,2.1,5.9,2.1c1.7,0,3.2-0.3,4.8-0.8c1.5-0.5,2.9-1.3,4.1-2.2l1.6,4
		c-1.8,1.3-3.4,2.2-4.9,2.7C221.1,54.3,219.2,54.5,217.1,54.5z"/>
</g>
</svg>
