<?xml version="1.0" encoding="utf-8"?>
<!-- Generator: Adobe Illustrator 25.4.1, SVG Export Plug-In . SVG Version: 6.00 Build 0)  -->
<svg version="1.1" id="Слой_1" xmlns="http://www.w3.org/2000/svg" xmlns:xlink="http://www.w3.org/1999/xlink" x="0px" y="0px"
	 viewBox="0 0 233 64" style="enable-background:new 0 0 233 64;" xml:space="preserve">
<style type="text/css">
	.st0{enable-background:new    ;}
	.st1{fill:#020203;}
	.st2{fill:#3463AC;}
</style>
<g>
	<g>
		<g class="st0">
			<path class="st1" d="M15.9,51.7V27.1h-4v-4h8.6v28.6H15.9z M15.9,17.4v-5.7h4.6v5.7H15.9z"/>
		</g>
		<g class="st0">
			<path class="st1" d="M37.4,51.7c-2,0-3.6-0.6-4.7-1.7c-1.2-1.1-1.8-2.6-1.8-4.5V27.1h-5v-4h4.3c0.3,0,0.6-0.1,0.8-0.3
				c0.2-0.2,0.4-0.8,0.6-1.7c0.2-0.9,0.5-2.4,0.8-4.4l0.2-1h2.7v7.4h7v4h-7v18.4c0,0.6,0.2,1.2,0.5,1.6c0.3,0.4,0.8,0.6,1.4,0.6h5.1
				v4H37.4z"/>
		</g>
		<g class="st0">
			<path class="st1" d="M58.8,52.3c-3.3,0-5.9-0.9-7.8-2.8c-1.9-1.9-3-4.2-3.3-7.1c-0.2-1.8-0.3-3.5-0.3-5c0-0.8,0-1.6,0.1-2.4
				c0.1-0.8,0.1-1.7,0.3-2.7c0.3-2.9,1.4-5.2,3.3-7.1c1.9-1.9,4.5-2.8,7.8-2.8c3.3,0,5.9,0.9,7.8,2.8c1.9,1.9,3,4.2,3.3,7.1
				c0.2,1.9,0.3,3.6,0.3,5.1c0,1.5-0.1,3.1-0.3,5c-0.3,2.8-1.4,5.2-3.3,7.1C64.7,51.3,62.1,52.3,58.8,52.3z M58.8,48.3
				c2.1,0,3.7-0.6,4.8-1.8c1.1-1.2,1.7-2.6,1.9-4.3c0.2-1.7,0.2-3.3,0.2-4.8c0-1.5-0.1-3.1-0.2-4.8c-0.2-1.7-0.8-3.1-1.9-4.3
				c-1.1-1.2-2.7-1.8-4.8-1.8c-2.1,0-3.7,0.6-4.9,1.8c-1.1,1.2-1.8,2.6-1.9,4.3c-0.1,1.8-0.2,3.4-0.2,4.8c0,1.5,0.1,3.1,0.2,4.8
				c0.2,1.6,0.8,3.1,1.9,4.3C55.1,47.7,56.7,48.3,58.8,48.3z"/>
			<path class="st1" d="M86.7,52.3c-1.9,0-3.6-0.4-5-1.1c-1.4-0.7-2.5-1.8-3.2-3.1c-0.7-1.3-1.1-2.9-1.1-4.7V23.1h4.6V43
				c0,1.6,0.5,2.9,1.5,3.8c1,1,2.5,1.4,4.5,1.4c1.9,0,3.4-0.5,4.5-1.4c1.1-1,1.6-2.2,1.6-3.8V23.1h4.6v28.6H94v-1
				c0-0.4-0.1-0.6-0.3-0.7c-0.2-0.1-0.5,0-0.8,0.2L90,51.9C89.1,52.2,88,52.3,86.7,52.3z"/>
			<path class="st1" d="M115.5,51.7c-2,0-3.6-0.6-4.7-1.7c-1.2-1.1-1.8-2.6-1.8-4.5V27.1h-5v-4h4.3c0.3,0,0.6-0.1,0.8-0.3
				c0.2-0.2,0.4-0.8,0.6-1.7c0.2-0.9,0.5-2.4,0.8-4.4l0.2-1h2.7v7.4h7v4h-7v18.4c0,0.6,0.2,1.2,0.5,1.6c0.3,0.4,0.8,0.6,1.4,0.6h5.1
				v4H115.5z"/>
		</g>
		<g class="st0">
			<path class="st1" d="M128,51.7v-5.7h4.9v5.7H128z"/>
		</g>
		<g class="st0">
			<path class="st2" d="M150.9,52.3c-3.3,0-5.9-0.9-7.8-2.8c-1.9-1.9-3-4.2-3.3-7.1c-0.2-1.8-0.3-3.5-0.3-5c0-0.8,0-1.6,0.1-2.4
				c0.1-0.8,0.1-1.7,0.3-2.7c0.3-2.9,1.4-5.2,3.3-7.1c1.9-1.9,4.5-2.8,7.8-2.8c3.3,0,5.9,0.9,7.8,2.8c1.9,1.9,3,4.2,3.3,7.1
				c0.2,1.9,0.3,3.6,0.3,5.1c0,1.5-0.1,3.1-0.3,5c-0.3,2.8-1.4,5.2-3.3,7.1C156.8,51.3,154.2,52.3,150.9,52.3z M150.9,48.3
				c2.1,0,3.7-0.6,4.8-1.8c1.1-1.2,1.7-2.6,1.9-4.3c0.2-1.7,0.2-3.3,0.2-4.8c0-1.5-0.1-3.1-0.2-4.8c-0.2-1.7-0.8-3.1-1.9-4.3
				c-1.1-1.2-2.7-1.8-4.8-1.8c-2.1,0-3.7,0.6-4.9,1.8c-1.1,1.2-1.8,2.6-1.9,4.3c-0.1,1.8-0.2,3.4-0.2,4.8c0,1.5,0.1,3.1,0.2,4.8
				c0.2,1.6,0.8,3.1,1.9,4.3C147.2,47.7,148.8,48.3,150.9,48.3z"/>
			<path class="st2" d="M170.3,51.7V23.1h4.6v1.7c0.8-0.6,1.8-1.2,3-1.6c1.2-0.5,2.6-0.7,4.1-0.7c2,0,3.7,0.4,5.1,1.1
				c1.4,0.7,2.5,1.8,3.3,3.1c0.8,1.3,1.1,2.9,1.1,4.6v20.4H187V31.8c0-1.6-0.5-2.9-1.5-3.8c-1-1-2.5-1.4-4.5-1.4
				c-1.9,0-3.4,0.5-4.5,1.4c-1.1,1-1.6,2.2-1.6,3.8v19.9H170.3z"/>
			<path class="st2" d="M211,52.2c-2.3,0-4.3-0.4-5.9-1.3c-1.6-0.9-2.8-2-3.7-3.5c-0.9-1.5-1.5-3.2-1.7-5c-0.1-0.9-0.2-1.8-0.3-2.6
				s-0.1-1.6-0.1-2.4c0-1.5,0.1-3.2,0.3-5.1c0.3-2.8,1.4-5.2,3.2-7c1.8-1.9,4.4-2.8,7.6-2.8c2.3,0,4.2,0.4,5.6,1.3
				c1.4,0.8,2.5,1.9,3.2,3.3c0.7,1.3,1.2,2.7,1.5,4.2c0.2,1.5,0.4,2.9,0.4,4.1l-1.1,3l-17.3-0.1v-3.9h14.1c0-1.3-0.2-2.5-0.5-3.7
				c-0.3-1.2-0.9-2.2-1.9-3c-0.9-0.8-2.2-1.2-3.9-1.2c-2,0-3.6,0.6-4.7,1.9c-1.1,1.2-1.7,2.7-1.9,4.3c-0.1,1-0.1,2.3-0.2,3.9
				c-0.1,1.7,0,3.5,0.3,5.6c0.2,1.6,0.8,3.1,1.9,4.3c1.1,1.2,2.8,1.9,5.1,1.9c1.4,0,2.8-0.2,4.1-0.7c1.3-0.5,2.5-1.1,3.6-1.9
				l1.4,3.5c-1.6,1.1-3,1.9-4.3,2.3C214.5,52,212.9,52.2,211,52.2z"/>
		</g>
	</g>
</g>
</svg>
