<?xml version="1.0" encoding="utf-8"?>
<!-- Generator: Adobe Illustrator 25.4.1, SVG Export Plug-In . SVG Version: 6.00 Build 0)  -->
<svg version="1.1" id="Слой_1" xmlns="http://www.w3.org/2000/svg" xmlns:xlink="http://www.w3.org/1999/xlink" x="0px" y="0px"
	 viewBox="0 0 595.3 841.9" style="enable-background:new 0 0 595.3 841.9;" xml:space="preserve">
<style type="text/css">
	.st0{fill:#FEFEFE;}
</style>
<path class="st0" d="M415.9,391.5c-0.6,32.6-13,61.5-38.1,84.7c-17.4,16-38.1,25.5-61.4,29.1c-3.7,0.6-7.3,1.7-11.1,1
	c-2-0.4-3.9,1.1-6.1,0.9c-18.7-1.9-37.1-4.8-53.8-14.1c-1.5-0.9-2.8-0.9-4.4-0.4c-19.7,6.3-39.5,12.6-59.2,18.9
	c-0.7,0.2-1.6,0.9-2.1,0.2c-0.5-0.6,0.1-1.5,0.4-2.2c6.3-18.8,12.6-37.6,19.1-56.4c0.8-2.2,0.4-3.8-0.7-5.7
	c-6.2-11-10.5-22.6-12.9-35c-4.9-25.5-1.7-49.9,9.6-73.1c12.2-24.9,31-43,56.2-54.7c17-7.9,35-11.3,53.6-10.4
	c26,1.3,49.2,10.2,69.3,27c17.4,14.6,29.5,32.7,36.4,54.4C414.1,366.8,415.7,378.3,415.9,391.5z M396.4,387.8
	c0.3-3.3-0.4-9.3-1.5-15.1c-4.6-23.5-16.1-43.2-34.9-58.1c-22.3-17.6-47.7-24.3-75.9-19.8c-25.2,4-45.6,16.3-61.1,36.3
	c-16.5,21.2-22.7,45.5-19.4,72.1c1.9,15.2,7.6,29.1,16.2,41.7c1.1,1.5,1.1,2.7,0.6,4.3c-3.4,10-6.7,20-10,29.9
	c-0.3,0.9-1.2,1.8-0.3,2.7c0.9,0.8,1.9,0,2.8-0.3c10.4-3.3,20.8-6.7,31.2-10c1.5-0.5,2.6-0.4,4,0.5c20.2,12.4,41.9,17.2,65.5,13.8
	c21.6-3.1,40.1-12.5,55.1-28C386.8,439.2,396.1,416.7,396.4,387.8z"/>
<path class="st0" d="M241.6,362.1c-0.2-10.8,4.4-19.2,12.1-26.1c2-1.8,4.4-2.6,7.1-2.5c2.2,0.1,4.4,0.1,6.5,0.3
	c2.1,0.1,3.8,1,4.6,3.1c3.3,8.7,6.7,17.4,9.9,26.2c1,2.8-1.2,5.1-2.7,7.2c-1.5,2.2-3.4,4.2-5.3,6c-2.5,2.2-2.9,4.3-1.2,7.3
	c8.2,14.5,19.2,26,34.1,33.6c10.5,5.3,8.6,3.7,15-2.8c1.7-1.8,3.3-3.7,4.8-5.6c3.2-4,3.9-4.3,8.8-1.8c6.4,3.2,12.8,6.6,19.1,10.1
	c6.1,3.3,6.4,4,5,10.7c-2.2,10.5-11,18.1-21.8,20.1c-7.4,1.3-14.1,0-20.8-2.5c-13.5-5-26.5-10.7-37.4-20.4
	c-11.2-10-20.3-21.6-28.2-34.3c-4.4-7.1-8-14.4-9.3-22.8C241.6,365.7,241.7,363.8,241.6,362.1z"/>
</svg>
