<svg id="Слой_1" data-name="Слой 1" xmlns="http://www.w3.org/2000/svg" viewBox="0 0 191.23 175.32"><defs><style>.cls-1,.cls-3,.cls-6,.cls-8{fill:#fff;}.cls-1,.cls-2,.cls-3,.cls-5,.cls-6{stroke:#1d1d1b;stroke-miterlimit:10;}.cls-2,.cls-5{fill:none;}.cls-3,.cls-5,.cls-6{stroke-width:0.5px;}.cls-4,.cls-7{fill:#1d1d1b;}.cls-6,.cls-7{opacity:0.35;}</style></defs><circle class="cls-1" cx="95.35" cy="87.66" r="87.16"/><path class="cls-2" d="M62.71,82.85V74.94H55.78a14.5,14.5,0,0,0-1.15-2.79l4.9-4.89-5.59-5.59L49,66.57a13.65,13.65,0,0,0-2.79-1.15V58.48h-7.9v6.94a13.42,13.42,0,0,0-2.79,1.15l-4.9-4.9-5.59,5.59L30,72.15a14.5,14.5,0,0,0-1.15,2.79H21.89v7.91h6.93A14.5,14.5,0,0,0,30,85.64l-4.9,4.89,5.59,5.59,4.9-4.9a13.42,13.42,0,0,0,2.79,1.15v6.94h7.9V92.37A13.65,13.65,0,0,0,49,91.22l4.9,4.9,5.59-5.59-4.9-4.89a14.5,14.5,0,0,0,1.15-2.79Z"/><circle class="cls-2" cx="42.3" cy="78.89" r="8.8"/><path class="cls-2" d="M141.35,139.65v-7.9h-6.93a14,14,0,0,0-1.15-2.79l4.9-4.9-5.59-5.59-4.9,4.9a14.24,14.24,0,0,0-2.79-1.15v-6.93H117v6.93a14,14,0,0,0-2.79,1.15l-4.9-4.9-5.59,5.59,4.9,4.9a14,14,0,0,0-1.15,2.79h-6.93v7.9h6.93a14.24,14.24,0,0,0,1.15,2.79l-4.9,4.9,5.59,5.59,4.9-4.9a14,14,0,0,0,2.79,1.15v6.93h7.9v-6.93a14.24,14.24,0,0,0,2.79-1.15l4.9,4.9,5.59-5.59-4.9-4.9a14.24,14.24,0,0,0,1.15-2.79Z"/><circle class="cls-2" cx="120.94" cy="135.7" r="8.8"/><path class="cls-1" d="M164.71,34.87V25H156a17.64,17.64,0,0,0-1.44-3.5l6.14-6.13-7-7-6.14,6.14A16.75,16.75,0,0,0,144.09,13V4.35h-9.9V13a17.21,17.21,0,0,0-3.49,1.44l-6.14-6.14-7,7,6.13,6.13a17.64,17.64,0,0,0-1.44,3.5h-8.68v9.9h8.68a17.8,17.8,0,0,0,1.44,3.49l-6.13,6.13,7,7,6.14-6.13a17.8,17.8,0,0,0,3.49,1.44v8.68h9.9V46.8a17.31,17.31,0,0,0,3.49-1.44l6.14,6.13,7-7-6.14-6.13A17.8,17.8,0,0,0,156,34.87Z"/><circle class="cls-2" cx="139.14" cy="29.92" r="11.02"/><rect class="cls-1" x="51.3" y="34.42" width="139.44" height="98.61" rx="10.76"/><rect class="cls-1" x="-2.41" y="89.95" width="73.17" height="67.36" rx="10.76" transform="translate(157.82 89.45) rotate(90)"/><rect class="cls-3" x="8.19" y="103.47" width="9.88" height="9.88" rx="3.77"/><rect class="cls-3" x="8.19" y="118.79" width="9.88" height="9.88" rx="3.77"/><rect class="cls-3" x="8.19" y="134.11" width="9.88" height="9.88" rx="3.77"/><rect class="cls-4" x="23.45" y="103.95" width="33.26" height="3.72" rx="1.86"/><rect class="cls-4" x="23.45" y="109.64" width="33.26" height="3.72" rx="1.86"/><rect class="cls-4" x="23.45" y="118.93" width="33.26" height="3.72" rx="1.86"/><rect class="cls-4" x="23.45" y="124.62" width="33.26" height="3.72" rx="1.86"/><rect class="cls-4" x="23.45" y="134.35" width="33.26" height="3.72" rx="1.86"/><rect class="cls-4" x="23.45" y="140.04" width="33.26" height="3.72" rx="1.86"/><polyline class="cls-5" points="10.01 106.46 13.13 110.17 18.07 101.44"/><polyline class="cls-5" points="10.01 120.94 13.13 124.65 18.07 115.91"/><polyline class="cls-5" points="10.01 136.5 13.13 140.22 18.07 131.48"/><path class="cls-4" d="M71.12,51.83c.28,22.29.44,46.52.46,68.72l-.46-.46,26.74,0c23.82,0,56.41.19,80.22.48-23.83.3-56.39.48-80.22.49l-26.74,0h-.46v-.46c0-22.18.21-46.46.46-68.72Z"/><line class="cls-6" x1="98.19" y1="51.96" x2="98.19" y2="120.42"/><line class="cls-6" x1="117.41" y1="51.96" x2="117.41" y2="120.42"/><line class="cls-6" x1="136.77" y1="51.96" x2="136.77" y2="120.42"/><line class="cls-6" x1="156" y1="51.96" x2="156" y2="120.42"/><line class="cls-6" x1="82.31" y1="67.74" x2="171.3" y2="67.74"/><line class="cls-6" x1="82.31" y1="51.96" x2="171.3" y2="51.96"/><line class="cls-6" x1="82.31" y1="81.18" x2="171.3" y2="81.18"/><line class="cls-6" x1="82.31" y1="94.61" x2="171.3" y2="94.61"/><line class="cls-6" x1="82.31" y1="108.05" x2="171.3" y2="108.05"/><path class="cls-1" d="M161.84,65.07h6.65a2.8,2.8,0,0,1,2.8,2.8v52.68a0,0,0,0,1,0,0H159a0,0,0,0,1,0,0V67.87A2.8,2.8,0,0,1,161.84,65.07Z"/><path class="cls-1" d="M143.06,69.5h6.65a2.8,2.8,0,0,1,2.8,2.8v48.24a0,0,0,0,1,0,0H140.25a0,0,0,0,1,0,0V72.31A2.8,2.8,0,0,1,143.06,69.5Z"/><path class="cls-1" d="M123.74,74.46h6.65a2.8,2.8,0,0,1,2.8,2.8v43.29a0,0,0,0,1,0,0H120.94a0,0,0,0,1,0,0V77.26A2.8,2.8,0,0,1,123.74,74.46Z"/><path class="cls-1" d="M104.43,78.89h6.65a2.8,2.8,0,0,1,2.8,2.8v38.85a0,0,0,0,1,0,0H101.62a0,0,0,0,1,0,0V81.7A2.8,2.8,0,0,1,104.43,78.89Z"/><path class="cls-1" d="M85.11,83.72h6.65a2.8,2.8,0,0,1,2.8,2.8v34a0,0,0,0,1,0,0H82.31a0,0,0,0,1,0,0v-34A2.8,2.8,0,0,1,85.11,83.72Z"/><path class="cls-7" d="M51.3,47.07H190.73l-.26-5.89s-1.28-3-2.44-3.92a10,10,0,0,0-4.51-2.43c-2-.33-122,0-122,0a6.13,6.13,0,0,0-5.08.77c-2.46,1.68-3.83,2.93-4.3,4.06S51.3,47.07,51.3,47.07Z"/><circle class="cls-8" cx="61.41" cy="40.83" r="2.45"/><ellipse class="cls-8" cx="182.42" cy="40.83" rx="2.33" ry="2.45"/><path class="cls-2" d="M21.89,87H46.73a0,0,0,0,1,0,0v5.07a3.12,3.12,0,0,1-3.12,3.12H25a3.12,3.12,0,0,1-3.12-3.12V87A0,0,0,0,1,21.89,87Z"/></svg>