<svg id="Слой_1" data-name="Слой 1" xmlns="http://www.w3.org/2000/svg" viewBox="0 0 189.01 154.38"><defs><style>.cls-1,.cls-3{fill:#fff;}.cls-1,.cls-7{stroke:#1d1d1b;}.cls-1,.cls-4,.cls-6,.cls-7{stroke-miterlimit:10;}.cls-2{opacity:0.44;}.cls-4,.cls-7{fill:none;}.cls-4,.cls-6{stroke:#fff;}.cls-4{stroke-width:4px;}.cls-5,.cls-6{fill:#1d1d1b;}</style></defs><circle class="cls-1" cx="91.75" cy="77.19" r="76.69"/><path class="cls-1" d="M34.36,132.58c0-.92-5-1.66-11.19-1.66S12,131.66,12,132.58a.36.36,0,0,0,.09.2.48.48,0,0,0-.09.27v1.43a.55.55,0,0,0,.09.28A.33.33,0,0,0,12,135c0,.92,5,1.67,11.19,1.67s11.19-.75,11.19-1.67a.28.28,0,0,0-.09-.19.55.55,0,0,0,.09-.28v-1.43a.48.48,0,0,0-.09-.27A.3.3,0,0,0,34.36,132.58Z"/><path class="cls-1" d="M12,133a52.43,52.43,0,0,0,11.19.81A66.55,66.55,0,0,0,34.36,133"/><path class="cls-1" d="M36.78,128.16c0-.92-5-1.66-11.19-1.66s-11.19.74-11.19,1.66a.36.36,0,0,0,.09.2.51.51,0,0,0-.09.27v1.43a.52.52,0,0,0,.09.28.33.33,0,0,0-.09.19c0,.92,5,1.67,11.19,1.67s11.19-.75,11.19-1.67a.33.33,0,0,0-.09-.19.52.52,0,0,0,.09-.28v-1.43a.51.51,0,0,0-.09-.27A.36.36,0,0,0,36.78,128.16Z"/><path class="cls-1" d="M14.4,128.57a52.74,52.74,0,0,0,11.19.82,67,67,0,0,0,11.19-.82"/><path class="cls-1" d="M35.15,124.45c0-.92-5-1.66-11.19-1.66s-11.19.74-11.19,1.66a.36.36,0,0,0,.09.2.51.51,0,0,0-.09.27v1.43a.52.52,0,0,0,.09.28.33.33,0,0,0-.09.19c0,.92,5,1.67,11.19,1.67s11.19-.75,11.19-1.67a.33.33,0,0,0-.09-.19.52.52,0,0,0,.09-.28v-1.43a.51.51,0,0,0-.09-.27A.36.36,0,0,0,35.15,124.45Z"/><path class="cls-1" d="M12.77,124.86a52.74,52.74,0,0,0,11.19.82,67,67,0,0,0,11.19-.82"/><path class="cls-1" d="M33.15,121.6c0-.92-5-1.66-11.19-1.66s-11.19.74-11.19,1.66a.36.36,0,0,0,.09.2.51.51,0,0,0-.09.27v1.43a.52.52,0,0,0,.09.28.33.33,0,0,0-.09.19c0,.92,5,1.67,11.19,1.67s11.19-.75,11.19-1.67a.31.31,0,0,0-.08-.19.61.61,0,0,0,.08-.28v-1.43a.61.61,0,0,0-.08-.27A.34.34,0,0,0,33.15,121.6Z"/><path class="cls-1" d="M10.77,122a52.74,52.74,0,0,0,11.19.82A67,67,0,0,0,33.15,122"/><path class="cls-1" d="M35.57,117.18c0-.92-5-1.66-11.19-1.66s-11.19.74-11.19,1.66a.36.36,0,0,0,.09.2.52.52,0,0,0-.09.28v1.42a.52.52,0,0,0,.09.28.33.33,0,0,0-.09.19c0,.92,5,1.67,11.19,1.67s11.19-.75,11.19-1.67a.28.28,0,0,0-.09-.19.52.52,0,0,0,.09-.28v-1.42a.52.52,0,0,0-.09-.28A.3.3,0,0,0,35.57,117.18Z"/><path class="cls-1" d="M13.19,117.59a52.74,52.74,0,0,0,11.19.82,67,67,0,0,0,11.19-.82"/><path class="cls-1" d="M33.94,113.47c0-.92-5-1.66-11.19-1.66s-11.19.74-11.19,1.66a.36.36,0,0,0,.09.2.51.51,0,0,0-.09.27v1.43a.52.52,0,0,0,.09.28.33.33,0,0,0-.09.19c0,.92,5,1.67,11.19,1.67s11.19-.75,11.19-1.67a.33.33,0,0,0-.09-.19.52.52,0,0,0,.09-.28v-1.43a.51.51,0,0,0-.09-.27A.36.36,0,0,0,33.94,113.47Z"/><path class="cls-1" d="M11.56,113.88a52.74,52.74,0,0,0,11.19.82,67,67,0,0,0,11.19-.82"/><circle class="cls-1" cx="91.75" cy="76.11" r="51.98"/><circle class="cls-1" cx="91.18" cy="76.11" r="47.22"/><g class="cls-2"><path d="M79.48,52.48H99.86c.29.08.57.18.86.23a14.41,14.41,0,0,1,6.33,2.35c4.79,3.36,6.53,8.06,6.06,13.76A13.91,13.91,0,0,1,99.93,81.66c-4,.17-7.94.12-11.91.17H86.69v4H88c5,0,10,0,15,0,1.33,0,1.61.3,1.63,1.64,0,1,0,1.93,0,2.89,0,1.56-.25,1.82-1.8,1.82H86.62c0,2.07,0,4,0,5.84A6.1,6.1,0,0,1,86,99.74H79.48a7.57,7.57,0,0,1-.61-1.89c-.08-1.87,0-3.74,0-5.69-2.47,0-4.74,0-7,0-1.28,0-1.56-.3-1.58-1.58,0-1.08,0-2.16,0-3.24s.42-1.58,1.53-1.54,2.16,0,3.24,0h3.77v-4H77.47c-1.89,0-3.78,0-5.67,0-1,0-1.57-.47-1.56-1.54,0-1.35,0-2.7,0-4.05s.37-1.53,1.63-1.54c1.5,0,3,0,4.51,0h2.45V73.13c0-6.22,0-12.43,0-18.64A7.72,7.72,0,0,1,79.48,52.48Zm7.2,22.19c3.89,0,7.67.17,11.43,0,4.57-.26,7.35-3.44,7.19-7.81s-3.23-7.13-7.74-7.17c-2.23,0-4.47,0-6.7,0H86.68Z"/><path class="cls-3" d="M86,99.74A6.1,6.1,0,0,0,86.59,98c.08-1.89,0-3.77,0-5.84h16.24c1.55,0,1.79-.26,1.8-1.82,0-1,0-1.93,0-2.89,0-1.34-.3-1.64-1.63-1.64-5,0-10,0-15,0h-1.3v-4H88c4,0,8,0,11.91-.17a13.91,13.91,0,0,0,13.18-12.84c.47-5.7-1.27-10.4-6.06-13.76a14.41,14.41,0,0,0-6.33-2.35c-.29-.05-.57-.15-.86-.23h15.52V99.74Z"/><path class="cls-3" d="M79.48,52.48a7.72,7.72,0,0,0-.61,2c-.05,6.21,0,12.42,0,18.64V74.7H76.39c-1.5,0-3,0-4.51,0-1.26,0-1.61.33-1.63,1.54s0,2.7,0,4.05c0,1.07.51,1.55,1.56,1.54,1.89,0,3.78,0,5.67,0h1.31v4H75c-1.08,0-2.16,0-3.24,0s-1.54.5-1.53,1.54,0,2.16,0,3.24c0,1.28.3,1.57,1.58,1.58,2.27,0,4.54,0,7,0,0,2,0,3.82,0,5.69a7.57,7.57,0,0,0,.61,1.89H68.13V52.48Z"/><path class="cls-3" d="M86.68,74.67v-15h4.18c2.23,0,4.47,0,6.7,0,4.51,0,7.59,2.91,7.74,7.17s-2.62,7.55-7.19,7.81C94.35,74.84,90.57,74.67,86.68,74.67Z"/><path class="cls-4" d="M82.71,97.23V55.72H99.35s9.77,1.52,9.77,11.75-13.2,10.68-13.2,10.68H73.4"/></g><path class="cls-5" d="M91.18,39.05c2,6.42,2.44,12.94,2.5,19.55s-.52,13.13-2.5,19.55c-2-6.42-2.44-12.94-2.5-19.55s.54-13.13,2.5-19.55Z"/><path class="cls-5" d="M127,76.11a63.8,63.8,0,0,1-35.74,0,63.89,63.89,0,0,1,35.74,0Z"/><circle class="cls-6" cx="91.27" cy="76.48" r="1.85"/><line class="cls-7" x1="91.26" y1="29.07" x2="91.26" y2="35.69"/><line class="cls-7" x1="91.26" y1="116.54" x2="91.26" y2="123.16"/><line class="cls-7" x1="138.12" y1="76.48" x2="131.5" y2="76.48"/><line class="cls-7" x1="50.65" y1="76.48" x2="44.03" y2="76.48"/><line class="cls-7" x1="124.64" y1="42.78" x2="119.96" y2="47.46"/><line class="cls-7" x1="62.79" y1="104.63" x2="58.11" y2="109.31"/><line class="cls-7" x1="124.26" y1="109.44" x2="119.57" y2="104.76"/><line class="cls-7" x1="62.41" y1="47.59" x2="57.72" y2="42.91"/><line class="cls-4" x1="73.4" y1="88.99" x2="101.95" y2="88.99"/><path class="cls-1" d="M141.56,141.16c0-1.1,6-2,13.44-2s13.44.9,13.44,2a.42.42,0,0,1-.1.24.59.59,0,0,1,.1.33v1.71a.65.65,0,0,1-.1.34.37.37,0,0,1,.1.23c0,1.1-6,2-13.44,2s-13.44-.9-13.44-2a.37.37,0,0,1,.1-.23.65.65,0,0,1-.1-.34v-1.71a.59.59,0,0,1,.1-.33A.42.42,0,0,1,141.56,141.16Z"/><path class="cls-1" d="M168.44,141.65s-4.51,1.06-13.44,1a80.3,80.3,0,0,1-13.44-1"/><path class="cls-1" d="M138.65,138.27c0-1.1,6-2,13.44-2s13.44.9,13.44,2a.42.42,0,0,1-.1.24.59.59,0,0,1,.1.33v1.71a.59.59,0,0,1-.1.33.42.42,0,0,1,.1.24c0,1.1-6,2-13.44,2s-13.44-.9-13.44-2a.42.42,0,0,1,.1-.24.59.59,0,0,1-.1-.33v-1.71a.59.59,0,0,1,.1-.33A.42.42,0,0,1,138.65,138.27Z"/><path class="cls-1" d="M165.53,138.76s-4.51,1.06-13.44,1a80.3,80.3,0,0,1-13.44-1"/><path class="cls-1" d="M141.56,132.21c0-1.1,6-2,13.44-2s13.44.9,13.44,2a.42.42,0,0,1-.1.24.59.59,0,0,1,.1.33v1.72a.64.64,0,0,1-.1.33.37.37,0,0,1,.1.23c0,1.11-6,2-13.44,2s-13.44-.89-13.44-2a.37.37,0,0,1,.1-.23.65.65,0,0,1-.1-.34v-1.71a.59.59,0,0,1,.1-.33A.42.42,0,0,1,141.56,132.21Z"/><path class="cls-1" d="M168.44,132.7s-4.51,1.06-13.44,1a78.92,78.92,0,0,1-13.44-1"/><path class="cls-1" d="M138.65,127.29c0-1.1,6-2,13.44-2s13.44.9,13.44,2a.42.42,0,0,1-.1.24.59.59,0,0,1,.1.33v1.71a.65.65,0,0,1-.1.34.37.37,0,0,1,.1.23c0,1.11-6,2-13.44,2s-13.44-.89-13.44-2a.37.37,0,0,1,.1-.23.65.65,0,0,1-.1-.34v-1.71a.59.59,0,0,1,.1-.33A.42.42,0,0,1,138.65,127.29Z"/><path class="cls-1" d="M165.53,127.78s-4.51,1.06-13.44,1a80.3,80.3,0,0,1-13.44-1"/><path class="cls-1" d="M140.1,123.23c0-1.11,6-2,13.45-2s13.44.89,13.44,2a.37.37,0,0,1-.1.23.65.65,0,0,1,.1.34v1.71a.59.59,0,0,1-.1.33.42.42,0,0,1,.1.24c0,1.1-6,2-13.44,2s-13.45-.9-13.45-2a.42.42,0,0,1,.1-.24.59.59,0,0,1-.1-.33V123.8a.65.65,0,0,1,.1-.34A.37.37,0,0,1,140.1,123.23Z"/><path class="cls-1" d="M167,123.72s-4.52,1.06-13.44,1a80.52,80.52,0,0,1-13.45-1"/><path class="cls-1" d="M137.2,117.92c0-1.11,6-2,13.44-2s13.44.89,13.44,2a.37.37,0,0,1-.1.23.65.65,0,0,1,.1.34v1.71a.59.59,0,0,1-.1.33.42.42,0,0,1,.1.24c0,1.1-6,2-13.44,2s-13.44-.9-13.44-2a.42.42,0,0,1,.1-.24.59.59,0,0,1-.1-.33v-1.71a.65.65,0,0,1,.1-.34A.37.37,0,0,1,137.2,117.92Z"/><path class="cls-1" d="M164.08,118.41s-4.51,1.06-13.44,1a80.3,80.3,0,0,1-13.44-1"/><path class="cls-1" d="M139.16,113.46c0-1.1,6-2,13.44-2s13.44.9,13.44,2a.42.42,0,0,1-.1.24.59.59,0,0,1,.1.33v1.71a.59.59,0,0,1-.1.33.42.42,0,0,1,.1.24c0,1.1-6,2-13.44,2s-13.44-.9-13.44-2a.42.42,0,0,1,.1-.24.59.59,0,0,1-.1-.33V114a.59.59,0,0,1,.1-.33A.42.42,0,0,1,139.16,113.46Z"/><path class="cls-1" d="M166,114s-4.51,1.06-13.44,1a80.3,80.3,0,0,1-13.44-1"/><path class="cls-1" d="M141.56,110c0-1.11,6-2,13.44-2s13.44.89,13.44,2a.39.39,0,0,1-.1.23.64.64,0,0,1,.1.33v1.72a.59.59,0,0,1-.1.33.42.42,0,0,1,.1.24c0,1.1-6,2-13.44,2s-13.44-.9-13.44-2a.42.42,0,0,1,.1-.24.59.59,0,0,1-.1-.33V110.6a.64.64,0,0,1,.1-.33A.39.39,0,0,1,141.56,110Z"/><path class="cls-1" d="M168.44,110.53s-4.51,1.06-13.44,1a80.3,80.3,0,0,1-13.44-1"/><path class="cls-1" d="M138.65,104.73c0-1.11,6-2,13.44-2s13.44.89,13.44,2a.39.39,0,0,1-.1.23.64.64,0,0,1,.1.33V107a.59.59,0,0,1-.1.33.42.42,0,0,1,.1.24c0,1.1-6,2-13.44,2s-13.44-.9-13.44-2a.42.42,0,0,1,.1-.24.59.59,0,0,1-.1-.33v-1.72a.64.64,0,0,1,.1-.33A.39.39,0,0,1,138.65,104.73Z"/><path class="cls-1" d="M165.53,105.22s-4.51,1.06-13.44,1a80.3,80.3,0,0,1-13.44-1"/><path class="cls-1" d="M140.61,100.27c0-1.11,6-2,13.44-2s13.44.89,13.44,2a.37.37,0,0,1-.1.23.65.65,0,0,1,.1.34v1.71a.59.59,0,0,1-.1.33.42.42,0,0,1,.1.24c0,1.1-6,2-13.44,2s-13.44-.9-13.44-2a.42.42,0,0,1,.1-.24.59.59,0,0,1-.1-.33v-1.71a.65.65,0,0,1,.1-.34A.37.37,0,0,1,140.61,100.27Z"/><path class="cls-1" d="M167.49,100.76s-4.51,1.06-13.44,1a80.3,80.3,0,0,1-13.44-1"/><path class="cls-1" d="M122.23,144.34c0-.92,5-1.67,11.19-1.67s11.19.75,11.19,1.67a.28.28,0,0,1-.09.19.52.52,0,0,1,.09.28v1.43a.51.51,0,0,1-.09.27.3.3,0,0,1,.09.2c0,.92-5,1.66-11.19,1.66s-11.19-.74-11.19-1.66a.36.36,0,0,1,.09-.2.51.51,0,0,1-.09-.27v-1.43a.52.52,0,0,1,.09-.28A.33.33,0,0,1,122.23,144.34Z"/><path class="cls-1" d="M144.61,144.75a52.43,52.43,0,0,1-11.19.81,66.55,66.55,0,0,1-11.19-.81"/><path class="cls-1" d="M119.82,139.92c0-.92,5-1.67,11.18-1.67s11.19.75,11.19,1.67a.31.31,0,0,1-.08.19.51.51,0,0,1,.08.28v1.43a.5.5,0,0,1-.08.27.34.34,0,0,1,.08.2c0,.92-5,1.66-11.19,1.66s-11.18-.74-11.18-1.66a.34.34,0,0,1,.08-.2.5.5,0,0,1-.08-.27v-1.43a.51.51,0,0,1,.08-.28A.31.31,0,0,1,119.82,139.92Z"/><path class="cls-1" d="M142.19,140.33a52.43,52.43,0,0,1-11.19.81,66.33,66.33,0,0,1-11.18-.81"/><path class="cls-1" d="M121.45,136.21c0-.92,5-1.67,11.18-1.67s11.19.75,11.19,1.67a.31.31,0,0,1-.08.19.51.51,0,0,1,.08.28v1.43a.5.5,0,0,1-.08.27.34.34,0,0,1,.08.2c0,.92-5,1.66-11.19,1.66s-11.18-.74-11.18-1.66a.34.34,0,0,1,.08-.2.5.5,0,0,1-.08-.27v-1.43a.51.51,0,0,1,.08-.28A.31.31,0,0,1,121.45,136.21Z"/><path class="cls-1" d="M143.82,136.62a52.43,52.43,0,0,1-11.19.81,66.33,66.33,0,0,1-11.18-.81"/><path class="cls-1" d="M123.44,133.36c0-.92,5-1.67,11.19-1.67s11.19.75,11.19,1.67a.33.33,0,0,1-.09.19.52.52,0,0,1,.09.28v1.43a.48.48,0,0,1-.09.27.36.36,0,0,1,.09.2c0,.92-5,1.66-11.19,1.66s-11.19-.74-11.19-1.66a.36.36,0,0,1,.09-.2.48.48,0,0,1-.09-.27v-1.43a.52.52,0,0,1,.09-.28A.33.33,0,0,1,123.44,133.36Z"/><path class="cls-1" d="M145.82,133.77a52.43,52.43,0,0,1-11.19.81,66.55,66.55,0,0,1-11.19-.81"/><path class="cls-1" d="M114.63,149.92c-.78-.38.69-4.92,3.27-10.14s5.3-9.13,6.08-8.74a.39.39,0,0,1,.13.15.48.48,0,0,1,.26,0l1.21.6a.46.46,0,0,1,.2.19.27.27,0,0,1,.2,0c.77.38-.69,4.92-3.27,10.13s-5.3,9.14-6.08,8.75a.28.28,0,0,1-.13-.15.44.44,0,0,1-.27,0l-1.2-.59a.52.52,0,0,1-.2-.19A.27.27,0,0,1,114.63,149.92Z"/><path class="cls-1" d="M124.32,131.21a49.79,49.79,0,0,1-4,9.78,62.57,62.57,0,0,1-5.37,9.1"/><polygon class="cls-1" points="164.2 100.17 159.9 99.37 174.68 148.71 177.82 145.65 164.2 100.17"/><polygon class="cls-1" points="166.07 99.62 161.76 98.81 176.54 148.15 179.69 145.09 166.07 99.62"/><polygon class="cls-1" points="168.29 98.95 163.99 98.15 178.76 147.49 181.91 144.43 168.29 98.95"/><polygon class="cls-1" points="170.74 98.64 166.43 97.83 181.21 147.17 184.36 144.11 170.74 98.64"/><polygon class="cls-1" points="172.6 98.08 168.3 97.27 183.07 146.61 186.22 143.56 172.6 98.08"/><polygon class="cls-1" points="174.82 97.41 170.52 96.61 185.3 145.95 188.44 142.89 174.82 97.41"/><polygon class="cls-1" points="166.74 122.67 177.33 119.81 181.21 119.2 182.25 122.67 178.18 123.95 167.87 126.43 166.74 122.67"/><line class="cls-1" x1="177.33" y1="119.81" x2="178.66" y2="123.8"/><polygon class="cls-1" points="2.84 142.01 0.82 145.9 52.33 146.04 50.31 142.14 2.84 142.01"/><polygon class="cls-1" points="2.84 140.06 0.83 143.95 52.33 144.09 50.31 140.19 2.84 140.06"/><polygon class="cls-1" points="2.85 137.74 0.83 141.63 52.34 141.77 50.32 137.87 2.85 137.74"/><polygon class="cls-1" points="3.26 135.31 1.24 139.2 52.75 139.34 50.73 135.44 3.26 135.31"/><polygon class="cls-1" points="3.26 133.37 1.25 137.25 52.75 137.39 50.73 133.5 3.26 133.37"/><polygon class="cls-1" points="3.28 126.14 1.25 134.93 52.76 135.07 50.76 126.27 3.28 126.14"/><polygon class="cls-1" points="24.38 146.1 24.71 135.13 25.63 126.14 29.35 126.21 29.68 135.01 29.41 146.04 24.38 146.1"/><path class="cls-1" d="M24.71,135.13l5-.12Z"/><path class="cls-1" d="M57.93,143.43c0-.92-5-1.66-11.19-1.66s-11.19.74-11.19,1.66a.36.36,0,0,0,.09.2.51.51,0,0,0-.09.27v1.43a.52.52,0,0,0,.09.28.33.33,0,0,0-.09.19c0,.92,5,1.67,11.19,1.67s11.19-.75,11.19-1.67a.33.33,0,0,0-.09-.19.52.52,0,0,0,.09-.28V143.9a.51.51,0,0,0-.09-.27A.36.36,0,0,0,57.93,143.43Z"/><path class="cls-1" d="M35.55,143.84a52.43,52.43,0,0,0,11.19.81,66.55,66.55,0,0,0,11.19-.81"/><path class="cls-1" d="M60.35,139c0-.92-5-1.66-11.19-1.66S38,138.09,38,139a.3.3,0,0,0,.09.2.51.51,0,0,0-.09.27v1.43a.52.52,0,0,0,.09.28.28.28,0,0,0-.09.19c0,.92,5,1.67,11.19,1.67s11.19-.75,11.19-1.67a.33.33,0,0,0-.09-.19.52.52,0,0,0,.09-.28v-1.43a.51.51,0,0,0-.09-.27A.36.36,0,0,0,60.35,139Z"/><path class="cls-1" d="M38,139.42a52.74,52.74,0,0,0,11.19.82,67,67,0,0,0,11.19-.82"/><path class="cls-1" d="M58.71,135.3c0-.92-5-1.66-11.18-1.66s-11.19.74-11.19,1.66a.34.34,0,0,0,.08.2.5.5,0,0,0-.08.27v1.43a.51.51,0,0,0,.08.28.31.31,0,0,0-.08.19c0,.92,5,1.67,11.19,1.67s11.18-.75,11.18-1.67a.31.31,0,0,0-.08-.19.51.51,0,0,0,.08-.28v-1.43a.5.5,0,0,0-.08-.27A.34.34,0,0,0,58.71,135.3Z"/><path class="cls-1" d="M36.34,135.71a52.74,52.74,0,0,0,11.19.82,66.81,66.81,0,0,0,11.18-.82"/><path class="cls-1" d="M56.72,132.45c0-.92-5-1.66-11.19-1.66s-11.19.74-11.19,1.66a.36.36,0,0,0,.09.2.51.51,0,0,0-.09.27v1.43a.52.52,0,0,0,.09.28.33.33,0,0,0-.09.19c0,.92,5,1.67,11.19,1.67s11.19-.75,11.19-1.67a.33.33,0,0,0-.09-.19.52.52,0,0,0,.09-.28v-1.43a.51.51,0,0,0-.09-.27A.36.36,0,0,0,56.72,132.45Z"/><path class="cls-1" d="M34.34,132.86a52.74,52.74,0,0,0,11.19.82,67,67,0,0,0,11.19-.82"/><path class="cls-1" d="M59.14,128c0-.92-5-1.66-11.19-1.66s-11.19.74-11.19,1.66a.36.36,0,0,0,.09.2.52.52,0,0,0-.09.28v1.42a.52.52,0,0,0,.09.28.33.33,0,0,0-.09.2c0,.91,5,1.66,11.19,1.66s11.19-.75,11.19-1.66a.33.33,0,0,0-.09-.2.52.52,0,0,0,.09-.28v-1.42a.52.52,0,0,0-.09-.28A.36.36,0,0,0,59.14,128Z"/><path class="cls-1" d="M36.76,128.44a52.74,52.74,0,0,0,11.19.82,67,67,0,0,0,11.19-.82"/><path class="cls-1" d="M57.51,124.32c0-.92-5-1.66-11.19-1.66s-11.19.74-11.19,1.66a.34.34,0,0,0,.08.2.61.61,0,0,0-.08.28v1.42a.61.61,0,0,0,.08.28.31.31,0,0,0-.08.19c0,.92,5,1.67,11.19,1.67s11.19-.75,11.19-1.67a.33.33,0,0,0-.09-.19.52.52,0,0,0,.09-.28V124.8a.52.52,0,0,0-.09-.28A.36.36,0,0,0,57.51,124.32Z"/><path class="cls-1" d="M35.13,124.73a52.74,52.74,0,0,0,11.19.82,67,67,0,0,0,11.19-.82"/></svg>