<svg id="Слой_1" data-name="Слой 1" xmlns="http://www.w3.org/2000/svg" xmlns:xlink="http://www.w3.org/1999/xlink" viewBox="0 0 238.93 210.7"><defs><style>.cls-1{fill:#1d1d1b;}.cls-2,.cls-3,.cls-5{fill:none;}.cls-2,.cls-3,.cls-4,.cls-5{stroke:#1d1d1b;stroke-miterlimit:10;}.cls-2{stroke-dasharray:3;}.cls-4{fill:#fff;}.cls-5{stroke-width:0.5px;}</style><symbol id="Telephone" data-name="Telephone" viewBox="0 0 7.45 11.62"><path class="cls-1" d="M0,1.69a13.08,13.08,0,0,0,3.57,9.87l2.59.06.29-.25L4.86,8.93,4,9.2,1.83,3.51l.85-.57L2.37,0H2Z"/><polygon class="cls-1" points="2.96 0 3.24 2.79 3.83 2.62 3.67 0.07 2.96 0"/><polygon class="cls-1" points="5.29 8.68 7.02 11.07 7.45 10.64 5.94 8.39 5.29 8.68"/></symbol></defs><path class="cls-1" d="M9.53,52.19a3.78,3.78,0,0,1,.39-6.46,6.64,6.64,0,0,0-.39,6.46Z"/><path class="cls-1" d="M6.46,53.86C3.27,51.58,3.6,46,7.05,44.14a8.59,8.59,0,0,0-.59,9.72Z"/><path class="cls-1" d="M4,56.32c-4.89-3.23-4-11.06.19-14.45C1.26,46.26.4,52.06,4,56.32Z"/><path class="cls-1" d="M55.48,41.26a3.78,3.78,0,0,1,1.16,6.37,6.64,6.64,0,0,0-1.16-6.37Z"/><path class="cls-1" d="M58.06,38.9c3.64,1.45,4.65,6.94,1.75,9.58a8.61,8.61,0,0,0-1.75-9.58Z"/><path class="cls-1" d="M59.87,35.93c5.52,2,6.57,9.77,3.27,14.07,1.78-5,1.24-10.8-3.27-14.07Z"/><path class="cls-2" d="M35.26,110s-3.34,35.19,34.52,35.19"/><circle class="cls-3" cx="105.35" cy="105.35" r="104.85"/><rect class="cls-4" x="80.91" y="81.85" width="141.76" height="91.42" rx="6.16"/><rect class="cls-3" x="85.3" y="84.68" width="133" height="85.77" rx="6.16"/><line class="cls-3" x1="85.3" y1="153.97" x2="218.29" y2="153.97"/><rect class="cls-3" x="141.1" y="161.28" width="21.39" height="3.07" rx="1.53"/><rect class="cls-4" x="136.82" y="173.27" width="28.03" height="10.78"/><rect class="cls-4" x="106.4" y="184.25" width="88.97" height="6.75" rx="2.25"/><rect class="cls-4" x="14.46" y="29" width="38.11" height="71.66" rx="5.94" transform="translate(-1.1 0.58) rotate(-0.97)"/><rect class="cls-4" x="16.83" y="37.75" width="33.7" height="54.7" transform="matrix(1, -0.02, 0.02, 1, -1.1, 0.58)"/><circle class="cls-3" cx="28.65" cy="34.34" r="0.33"/><circle class="cls-1" cx="32.94" cy="31.41" r="0.33"/><path class="cls-1" d="M30.88,34.3A1.12,1.12,0,0,1,32,33.78l1.14,0,1.7,0a4.31,4.31,0,0,1,.58.49,3.75,3.75,0,0,1-.56.51l-1.71,0-1.14,0a1.12,1.12,0,0,1-1.14-.48Z"/><circle class="cls-3" cx="34.05" cy="96.82" r="2.06"/><circle class="cls-5" cx="43.51" cy="81.28" r="3.87"/><circle class="cls-5" cx="24.92" cy="81.9" r="3.87"/><circle class="cls-1" cx="33.12" cy="53.58" r="4.49"/><path class="cls-1" d="M33.31,58.48c-4.44.1-7.92,5.73-7.76,12.57l16.08-.36C41.48,63.85,37.75,58.38,33.31,58.48Z"/><use width="7.45" height="11.62" transform="matrix(-0.11, 0.43, -0.43, -0.11, 27.84, 80.96)" xlink:href="#Telephone"/><use width="7.45" height="11.62" transform="translate(42.19 83.83) rotate(-119.98) scale(0.4)" xlink:href="#Telephone"/><path class="cls-4" d="M65,122.16h71.05V98.3a5.11,5.11,0,0,0-5.1-5.09H65A5.1,5.1,0,0,0,60,98.3v18.77A5.1,5.1,0,0,0,65,122.16Z"/><path class="cls-4" d="M136.09,114l6.65,6.9a.74.74,0,0,1-.53,1.25H124.82"/><path class="cls-4" d="M233.33,143h-71V119.1a5.1,5.1,0,0,1,5.09-5.09h66a5.11,5.11,0,0,1,5.1,5.09v18.77A5.11,5.11,0,0,1,233.33,143Z"/><path class="cls-4" d="M162.29,134.81l-6.66,6.9a.74.74,0,0,0,.53,1.25h17.39"/><circle class="cls-4" cx="73.01" cy="106.88" r="5.17"/><circle class="cls-1" cx="72.92" cy="106.02" r="1.48"/><path class="cls-1" d="M72.91,107.64c-1.46,0-2.69,1.78-2.73,4l5.31.1C75.53,109.52,74.38,107.67,72.91,107.64Z"/><circle class="cls-4" cx="226.02" cy="129.11" r="5.17"/><circle class="cls-1" cx="225.93" cy="128.25" r="1.48"/><path class="cls-1" d="M225.92,129.87c-1.46,0-2.69,1.78-2.73,4l5.31.1C228.54,131.75,227.39,129.9,225.92,129.87Z"/><rect class="cls-1" x="83.9" y="102.68" width="39.94" height="2.33" rx="1.17"/><rect class="cls-1" x="83.9" y="106.52" width="39.94" height="2.33" rx="1.17"/><rect class="cls-1" x="83.9" y="110.36" width="39.94" height="2.33" rx="1.17"/><rect class="cls-1" x="175.4" y="124.56" width="39.94" height="2.33" rx="1.17"/><rect class="cls-1" x="175.4" y="128.4" width="39.94" height="2.33" rx="1.17"/><rect class="cls-1" x="175.4" y="132.24" width="39.94" height="2.33" rx="1.17"/><path class="cls-2" d="M57.24,63.62s11.2-12,22.16-15,26.31-1.49,26.31-1.49"/><path class="cls-3" d="M149.08,30.31c3.67,2.56,4,2.51,4,5.46V55.2A5.86,5.86,0,0,1,147,60.81H116.19a5.87,5.87,0,0,1-6.06-5.61V35.77c.12-1.76.77-3.64,3.64-5.46"/><path class="cls-3" d="M110.5,33.87l20.74,10.54a1.32,1.32,0,0,0,1.44,0l19.69-11.16"/><path class="cls-3" d="M112.5,31.23l17.77-12.87a1.9,1.9,0,0,1,2,0l18.06,12.87"/><path class="cls-4" d="M146.55,36.53V22.85a.85.85,0,0,0-.86-.85H117.44a.89.89,0,0,0-.9.89v14L132,44.62Z"/><rect class="cls-1" x="121.3" y="28.5" width="20.49" height="1.2" rx="0.6"/><rect class="cls-1" x="121.3" y="30.47" width="20.49" height="1.2" rx="0.6"/><rect class="cls-1" x="121.3" y="32.44" width="20.49" height="1.2" rx="0.6"/></svg>