<svg id="Слой_1" data-name="Слой 1" xmlns="http://www.w3.org/2000/svg" viewBox="0 0 32 32"><defs><style>.cls-1{fill:#fff;}.cls-2{fill:#3765ae;}</style></defs><circle class="cls-1" cx="16" cy="16" r="15.75"/><path class="cls-2" d="M26.35,28.14c0,.09-.07.12-.12.16a15.79,15.79,0,0,1-7,3.37,16,16,0,0,1-4,.31,15.73,15.73,0,0,1-3.53-.55c-.11,0-.15-.07-.15-.19,0-1,0-2,0-3,0-6.89,0-13.78,0-20.66,0-.14,0-.17-.16-.17H5.56c-.12,0-.16,0-.16.15V10.2c0,.12,0,.16.16.16H8.13c.13,0,.18,0,.18.17,0,5.7,0,11.4,0,17.11,0,.73,0,1.47,0,2.21,0,.05,0,.11,0,.14s-.09,0-.13-.05A14,14,0,0,1,6,28.52a15.72,15.72,0,0,1-2.08-2A15.74,15.74,0,0,1,.28,19,19.13,19.13,0,0,1,0,17a16.86,16.86,0,0,1,0-1.88,14.3,14.3,0,0,1,.25-2.06,15.88,15.88,0,0,1,3.5-7.39A16,16,0,0,1,8.13,2.07c.17-.1.17-.1.17.1s0,.66,0,1c0,.12,0,.15.15.15h3c.13,0,.16,0,.16-.17,0-.78,0-1.57,0-2.35A.21.21,0,0,1,11.8.55,16.24,16.24,0,0,1,19.54.39a14.85,14.85,0,0,1,2.92.94,15.53,15.53,0,0,1,2.63,1.5,13.87,13.87,0,0,1,1.77,1.41,16.57,16.57,0,0,1,1.32,1.33,16.16,16.16,0,0,1,1.58,2.27,12.61,12.61,0,0,1,1.56,3.54,15.61,15.61,0,0,1,.48,2.13A16.2,16.2,0,0,1,32,16.62a16.82,16.82,0,0,1-.39,2.91,12.6,12.6,0,0,1-1.12,3.37,12,12,0,0,1-1.32,2.2.26.26,0,0,1-.24.13H27.2l-3.32,0a1.34,1.34,0,0,1-1.39-1.15,2.59,2.59,0,0,1,0-.48V10.54c0-.17.05-.19.2-.19h4.7c.15,0,.2,0,.2-.19,0-.85,0-1.7,0-2.54,0-.15,0-.19-.19-.19H22.63c-.14,0-.18,0-.18-.18,0-1.68,0-3.36,0-5,0-.14,0-.17-.18-.17H20.6c-.1,0-.15,0-.17.14-.17,1-.35,2-.53,3a10.72,10.72,0,0,1-.39,1.58.84.84,0,0,1-1,.67H15.71c-.13,0-.18,0-.18.16,0,.87,0,1.73,0,2.59,0,.13,0,.17.17.17H19c.14,0,.18,0,.18.18,0,4.4,0,8.81,0,13.22a4.06,4.06,0,0,0,2.25,3.85,4.82,4.82,0,0,0,2.23.53h2.73Z" transform="translate(0 0)"/></svg>