<?xml version="1.0" encoding="utf-8"?>
<!-- Generator: Adobe Illustrator 25.4.1, SVG Export Plug-In . SVG Version: 6.00 Build 0)  -->
<svg version="1.1" id="Слой_1" xmlns="http://www.w3.org/2000/svg" xmlns:xlink="http://www.w3.org/1999/xlink" x="0px" y="0px"
	 viewBox="0 0 233 64" style="enable-background:new 0 0 233 64;" xml:space="preserve">
<style type="text/css">
	.st0{enable-background:new    ;}
	.st1{fill:#020202;}
	.st2{fill:#3564AC;}
</style>
<g>
	<g>
		<g class="st0">
			<path class="st1" d="M21,49.7V26h-3.8v-3.8h8.2v27.5H21z M21,16.7v-5.5h4.4v5.5H21z"/>
		</g>
		<g class="st0">
			<path class="st1" d="M41.6,49.7c-1.9,0-3.4-0.5-4.6-1.6c-1.1-1.1-1.7-2.5-1.7-4.3V26h-4.8v-3.8h4.2c0.3,0,0.6-0.1,0.8-0.3
				c0.2-0.2,0.4-0.8,0.6-1.6c0.2-0.9,0.5-2.3,0.8-4.2l0.2-0.9h2.6v7.1h6.8V26h-6.8v17.7c0,0.6,0.2,1.1,0.5,1.5
				c0.3,0.4,0.8,0.6,1.4,0.6h4.9v3.8H41.6z"/>
		</g>
		<g class="st0">
			<path class="st1" d="M62.2,50.3c-3.2,0-5.7-0.9-7.5-2.7c-1.8-1.8-2.9-4.1-3.2-6.8c-0.2-1.8-0.3-3.4-0.3-4.8c0-0.8,0-1.5,0.1-2.3
				c0.1-0.8,0.1-1.6,0.2-2.6c0.3-2.7,1.4-5,3.2-6.8c1.8-1.8,4.3-2.7,7.5-2.7c3.2,0,5.7,0.9,7.5,2.7c1.8,1.8,2.9,4.1,3.2,6.8
				c0.2,1.8,0.3,3.4,0.3,4.9c0,1.4-0.1,3-0.3,4.8c-0.3,2.7-1.4,5-3.2,6.8C67.9,49.4,65.4,50.3,62.2,50.3z M62.2,46.5
				c2,0,3.6-0.6,4.6-1.8c1.1-1.2,1.7-2.5,1.8-4.1c0.1-1.6,0.2-3.2,0.2-4.6c0-1.4-0.1-3-0.2-4.6c-0.1-1.6-0.8-3-1.8-4.1
				c-1.1-1.2-2.6-1.7-4.6-1.7c-2,0-3.6,0.6-4.7,1.7c-1.1,1.2-1.7,2.5-1.8,4.1c-0.1,1.7-0.2,3.2-0.2,4.6c0,1.4,0.1,2.9,0.2,4.6
				c0.2,1.6,0.8,2.9,1.8,4.1C58.6,45.9,60.2,46.5,62.2,46.5z"/>
			<path class="st1" d="M89,50.3c-1.9,0-3.5-0.3-4.8-1c-1.3-0.7-2.4-1.7-3.1-3C80.4,45,80,43.5,80,41.8V22.2h4.4v19.1
				c0,1.5,0.5,2.8,1.5,3.7c1,0.9,2.4,1.4,4.3,1.4c1.9,0,3.3-0.5,4.3-1.4c1-0.9,1.5-2.1,1.5-3.7V22.2h4.4v27.5h-4.4v-1
				c0-0.4-0.1-0.6-0.3-0.7c-0.2-0.1-0.5,0-0.8,0.2L92.2,50C91.4,50.2,90.3,50.3,89,50.3z"/>
			<path class="st1" d="M116.8,49.7c-1.9,0-3.4-0.5-4.6-1.6c-1.1-1.1-1.7-2.5-1.7-4.3V26h-4.8v-3.8h4.2c0.3,0,0.6-0.1,0.8-0.3
				c0.2-0.2,0.4-0.8,0.6-1.6c0.2-0.9,0.5-2.3,0.8-4.2l0.2-0.9h2.6v7.1h6.8V26h-6.8v17.7c0,0.6,0.2,1.1,0.5,1.5
				c0.3,0.4,0.8,0.6,1.4,0.6h4.9v3.8H116.8z"/>
		</g>
		<g class="st0">
			<path class="st1" d="M128.8,49.7v-5.5h4.7v5.5H128.8z"/>
		</g>
		<g class="st0">
			<path class="st2" d="M150.8,50.3c-3.2,0-5.7-0.9-7.5-2.7c-1.8-1.8-2.9-4.1-3.2-6.8c-0.2-1.8-0.3-3.4-0.3-4.8c0-0.8,0-1.5,0.1-2.3
				c0.1-0.8,0.1-1.6,0.2-2.6c0.3-2.7,1.4-5,3.2-6.8c1.8-1.8,4.3-2.7,7.5-2.7c3.2,0,5.7,0.9,7.5,2.7c1.8,1.8,2.9,4.1,3.2,6.8
				c0.2,1.8,0.3,3.4,0.3,4.9c0,1.4-0.1,3-0.3,4.8c-0.3,2.7-1.4,5-3.2,6.8C156.5,49.4,154,50.3,150.8,50.3z M150.8,46.5
				c2,0,3.6-0.6,4.6-1.8c1.1-1.2,1.7-2.5,1.8-4.1c0.1-1.6,0.2-3.2,0.2-4.6c0-1.4-0.1-3-0.2-4.6c-0.1-1.6-0.8-3-1.8-4.1
				c-1.1-1.2-2.6-1.7-4.6-1.7c-2,0-3.6,0.6-4.7,1.7c-1.1,1.2-1.7,2.5-1.8,4.1c-0.1,1.7-0.2,3.2-0.2,4.6c0,1.4,0.1,2.9,0.2,4.6
				c0.2,1.6,0.8,2.9,1.8,4.1C147.2,45.9,148.8,46.5,150.8,46.5z"/>
			<path class="st2" d="M169.5,49.7V22.2h4.4v1.6c0.7-0.6,1.7-1.1,2.9-1.6c1.2-0.5,2.5-0.7,4-0.7c1.9,0,3.5,0.4,4.9,1.1
				c1.4,0.7,2.4,1.7,3.2,3c0.7,1.3,1.1,2.8,1.1,4.5v19.6h-4.4V30.6c0-1.5-0.5-2.8-1.5-3.7c-1-0.9-2.4-1.4-4.3-1.4
				c-1.9,0-3.3,0.5-4.3,1.4c-1,0.9-1.5,2.1-1.5,3.7v19.1H169.5z"/>
			<path class="st2" d="M208.5,50.2c-2.2,0-4.1-0.4-5.7-1.2c-1.5-0.8-2.7-2-3.6-3.4c-0.9-1.4-1.4-3-1.6-4.8
				c-0.1-0.9-0.2-1.7-0.2-2.5s-0.1-1.5-0.1-2.3c0-1.5,0.1-3.1,0.3-4.9c0.3-2.7,1.3-5,3.1-6.8c1.8-1.8,4.2-2.7,7.3-2.7
				c2.2,0,4,0.4,5.4,1.2c1.4,0.8,2.4,1.9,3.1,3.1c0.7,1.3,1.2,2.6,1.4,4.1c0.2,1.4,0.4,2.7,0.4,4l-1.1,2.9l-16.6-0.1v-3.8h13.5
				c0-1.2-0.2-2.4-0.5-3.6c-0.3-1.2-0.9-2.1-1.8-2.9c-0.9-0.8-2.1-1.1-3.8-1.1c-1.9,0-3.4,0.6-4.5,1.8c-1.1,1.2-1.7,2.6-1.8,4.1
				c-0.1,0.9-0.1,2.2-0.2,3.8c-0.1,1.6,0,3.4,0.2,5.4c0.2,1.6,0.8,3,1.8,4.1c1,1.2,2.7,1.8,4.9,1.8c1.4,0,2.7-0.2,4-0.7
				c1.3-0.4,2.4-1.1,3.4-1.9l1.3,3.4c-1.5,1.1-2.9,1.8-4.1,2.3C211.9,50,210.4,50.2,208.5,50.2z"/>
		</g>
	</g>
</g>
</svg>
