<svg id="Слой_1" data-name="Слой 1" xmlns="http://www.w3.org/2000/svg" viewBox="0 0 32 32"><defs><style>.cls-1{fill:#3765ae;}</style></defs><path class="cls-1" d="M26.35,28.14c0,.09-.07.12-.12.16a15.9,15.9,0,0,1-11,3.68,15.73,15.73,0,0,1-3.53-.55c-.11,0-.15-.07-.15-.19,0-1,0-2,0-3,0-6.89,0-13.78,0-20.66,0-.14,0-.17-.16-.17H5.56c-.12,0-.16,0-.16.15V10.2c0,.12,0,.16.16.16H8.13c.13,0,.18,0,.18.17,0,5.7,0,11.4,0,17.1,0,.74,0,1.48,0,2.22,0,.05,0,.11,0,.14s-.09,0-.13-.05A14,14,0,0,1,6,28.52a15.72,15.72,0,0,1-2.08-2A15.74,15.74,0,0,1,.28,19,19,19,0,0,1,0,17a16.67,16.67,0,0,1,0-1.87,14.3,14.3,0,0,1,.25-2.06,15.88,15.88,0,0,1,3.5-7.39A16,16,0,0,1,8.13,2.07c.17-.1.17-.1.17.1s0,.66,0,1c0,.12,0,.15.15.15h3c.13,0,.16,0,.16-.17,0-.78,0-1.57,0-2.35A.21.21,0,0,1,11.8.55a16.42,16.42,0,0,1,5-.53A16.64,16.64,0,0,1,19.55.4a17.26,17.26,0,0,1,2.9,1,15.52,15.52,0,0,1,2.64,1.48,17.19,17.19,0,0,1,1.77,1.42,18.37,18.37,0,0,1,1.3,1.35,16.17,16.17,0,0,1,3.16,5.78,15.61,15.61,0,0,1,.48,2.13A16.2,16.2,0,0,1,32,16.62a16.82,16.82,0,0,1-.39,2.91,16.42,16.42,0,0,1-1.17,3.37,16.09,16.09,0,0,1-1.27,2.2.26.26,0,0,1-.24.13H27.2l-3.32,0a1.34,1.34,0,0,1-1.39-1.15,2.59,2.59,0,0,1,0-.48V10.54c0-.17.05-.19.2-.19h4.7c.15,0,.2,0,.2-.2,0-.84,0-1.69,0-2.53,0-.15,0-.19-.19-.19H22.63c-.14,0-.18,0-.18-.18,0-1.68,0-3.36,0-5,0-.14,0-.17-.18-.17H20.6c-.1,0-.15,0-.17.14-.17,1-.35,2-.53,3a10.72,10.72,0,0,1-.39,1.58.84.84,0,0,1-1,.67H15.71c-.13,0-.18,0-.18.16,0,.87,0,1.73,0,2.59,0,.13,0,.17.17.17H19c.14,0,.18,0,.18.18,0,4.4,0,8.81,0,13.22a4.07,4.07,0,0,0,2.25,3.85,4.82,4.82,0,0,0,2.23.53h2.73Z"/></svg>